{"title":"Streetdance.3D.2010.BluRay.1080p.AC3-Lorinsion","uid":6100256,"size":4331336510,"categoryP":"video","categoryS":"hd___movies","magnet":"?xt=urn:btih:d0e9b30248b009c4c923851036f7d451c3b1f189&amp;dn=Streetdance.3D.2010.BluRay.1080p.AC3-Lorinsion&amp;tr=udp%3A%2F%2Ftracker.openbittorrent.com%3A80&amp;tr=udp%3A%2F%2Fopen.demonii.com%3A1337&amp;tr=udp%3A%2F%2Ftracker.coppersurfer.tk%3A6969&amp;tr=udp%3A%2F%2Fexodus.desync.com%3A6969","seeders":1,"leechers":0,"uploader":"Lorinsion","files":9,"time":1294938581,"description":"General\nComplete name                    : C:\\UPs\\Streetdance.3D.2010.BluRay.1080p-Lorinsion\\StreetDance 3D.mkv\nFormat                           : Matroska\nFile size                        : 3.94 GiB\nDuration                         : 1h 38mn\nOverall bit rate                 : 5 728 Kbps\nMovie name                       : 00000\nEncoded date                     : UTC 2010-12-08 01:23:07\nWriting application              : mkvmerge v4.3.0 ('Escape from the Island') built on Sep  5 2010 10:30:51\nWriting library                  : libebml v1.0.0 + libmatroska v1.0.0\n\nVideo\nID                               : 1\nFormat                           : AVC\nFormat/Info                      : Advanced Video Codec\nFormat profile                   : &lt;a class=&quot;__cf_email__&quot; href=&quot;/cdn-cgi/l/email-protection&quot; data-cfemail=&quot;fbb3929c93bbb7cfd5cb&quot;&gt;[email&amp;#160;protected]&lt;/a&gt;&lt;script cf-hash='f9e31' type=&quot;text/javascript&quot;&gt;\n/* &lt;![CDATA[ */!function(){try{var t=&quot;currentScript&quot;in document?document.currentScript:function(){for(var t=document.getElementsByTagName(&quot;script&quot;),e=t.length;e--;)if(t[e].getAttribute(&quot;cf-hash&quot;))return t[e]}();if(t&amp;&amp;t.previousSibling){var e,r,n,i,c=t.previousSibling,a=c.getAttribute(&quot;data-cfemail&quot;);if(a){for(e=&quot;&quot;,r=parseInt(a.substr(0,2),16),n=2;a.length-n;n+=2)i=parseInt(a.substr(n,2),16)^r,e+=String.fromCharCode(i);e=document.createTextNode(e),c.parentNode.replaceChild(e,c)}}}catch(u){}}();/* ]]&gt; */&lt;/script&gt;\nFormat settings, CABAC           : Yes\nFormat settings, ReFrames        : 3 frames\nCodec ID                         : V_MPEG4/ISO/AVC\nDuration                         : 1h 38mn\nBit rate mode                    : Variable\nBit rate                         : 4 974 Kbps\nMaximum bit rate                 : 25.0 Mbps\nWidth                            : 1 920 pixels\nHeight                           : 1 080 pixels\nDisplay aspect ratio             : 16:9\nFrame rate                       : 23.976 fps\nColor space                      : YUV\nChroma subsampling               : 4:2:0\nBit depth                        : 8 bits\nScan type                        : Progressive\nBits/(Pixel*Frame)               : 0.100\nStream size                      : 3.42 GiB (87%)\nWriting library                  : x264 core 105 r1732 2b04482\n\nAudio\nID                               : 2\nFormat                           : AC-3\nFormat/Info                      : Audio Coding 3\nMode extension                   : CM (complete main)\nCodec ID                         : A_AC3\nDuration                         : 1h 38mn\nBit rate mode                    : Constant\nBit rate                         : 640 Kbps\nChannel(s)                       : 6 channels\nChannel positions                : Front: L C R, Side: L R, LFE\nSampling rate                    : 48.0 KHz\nBit depth                        : 16 bits\nCompression mode                 : Lossy\nStream size                      : 451 MiB (11%)\nLanguage                         : English\n\n\nScreens:\n &lt;a href=&quot;\nhttp://img202.imageshack.us/i/vlcsnap2011011317h02m57.png/&quot; rel=&quot;nofollow&quot; target=&quot;_NEW&quot;&gt;\nhttp://img202.imageshack.us/i/vlcsnap2011011317h02m57.png/&lt;/a&gt;\n &lt;a href=&quot;\nhttp://img143.imageshack.us/i/vlcsnap2011011317h03m35.png/&quot; rel=&quot;nofollow&quot; target=&quot;_NEW&quot;&gt;\nhttp://img143.imageshack.us/i/vlcsnap2011011317h03m35.png/&lt;/a&gt;\n &lt;a href=&quot;\nhttp://img267.imageshack.us/i/vlcsnap2011011316h47m31.png/&quot; rel=&quot;nofollow&quot; target=&quot;_NEW&quot;&gt;\nhttp://img267.imageshack.us/i/vlcsnap2011011316h47m31.png/&lt;/a&gt;\n &lt;a href=&quot;\nhttp://img69.imageshack.us/i/vlcsnap2011011316h47m44.png/&quot; rel=&quot;nofollow&quot; target=&quot;_NEW&quot;&gt;\nhttp://img69.imageshack.us/i/vlcsnap2011011316h47m44.png/&lt;/a&gt;\n &lt;a href=&quot;\nhttp://img813.imageshack.us/i/vlcsnap2011011316h48m30.png/&quot; rel=&quot;nofollow&quot; target=&quot;_NEW&quot;&gt;\nhttp://img813.imageshack.us/i/vlcsnap2011011316h48m30.png/&lt;/a&gt;\n &lt;a href=&quot;\nhttp://img687.imageshack.us/i/vlcsnap2011011316h56m23.png/&quot; rel=&quot;nofollow&quot; target=&quot;_NEW&quot;&gt;\nhttp://img687.imageshack.us/i/vlcsnap2011011316h56m23.png/&lt;/a&gt;","torrent":{"xt":"urn:btih:d0e9b30248b009c4c923851036f7d451c3b1f189","amp;dn":"Streetdance.3D.2010.BluRay.1080p.AC3-Lorinsion","amp;tr":["udp%3A%2F%2Ftracker.openbittorrent.com%3A80","udp%3A%2F%2Fopen.demonii.com%3A1337","udp%3A%2F%2Ftracker.coppersurfer.tk%3A6969","udp%3A%2F%2Fexodus.desync.com%3A6969"],"infoHash":"d0e9b30248b009c4c923851036f7d451c3b1f189","infoHashBuffer":{"type":"Buffer","data":[208,233,179,2,72,176,9,196,201,35,133,16,54,247,212,81,195,177,241,137]},"announce":[],"urlList":[]}}